<svg>
<path style="fill:#F2F2F2;" d="M480,128v245.333c0,5.891-4.776,10.667-10.667,10.667h-128v-21.333H170.667V384h-128
	C36.776,384,32,379.224,32,373.333V96h448V128z"/>
<g>
	<path style="fill:#AAC4DA;" d="M394.667,384h42.667v117.333h-42.667V384z"/>
	<path style="fill:#AAC4DA;" d="M74.667,384h42.667v117.333H74.667V384z"/>
	<path style="fill:#AAC4DA;" d="M501.333,53.333V96H480H320H192H32H10.667V53.333h192h106.667H501.333z"/>
</g>
<g>
	<path style="fill:#D9EEF7;" d="M341.333,384v21.333H170.667V384v-21.333h170.667V384z"/>
	<path style="fill:#D9EEF7;" d="M202.667,10.667h106.667v42.667H202.667V10.667z"/>
</g>
<circle style="fill:#FFE451;" cx="256" cy="149.333" r="42.667"/>
<path style="fill:#31D6BB;" d="M480,341.333v32c0,5.891-4.776,10.667-10.667,10.667h-128v-21.333h-10.667l-32-32l-32-32L352,213.333
	l85.333,85.333L480,341.333z"/>
<path style="fill:#31E8BB;" d="M35.2,380.8l39.467-39.467L192,224l74.667,74.667l32,32l32,32h-160V384h-128
	c-2.832,0-5.551-1.11-7.573-3.093L35.2,380.8z"/>
<g>
	<path style="fill:#4C5B66;" d="M501.333,42.667H320v-32C320,4.776,315.224,0,309.333,0H202.667C196.776,0,192,4.776,192,10.667v32
		H10.667C4.776,42.667,0,47.442,0,53.333V96c0,5.891,4.776,10.667,10.667,10.667H192V85.333H21.333V64h469.333v21.333H320v21.333
		h181.333c5.891,0,10.667-4.776,10.667-10.667V53.333C512,47.442,507.224,42.667,501.333,42.667z M213.333,21.333h85.333v21.333
		h-85.333V21.333z"/>
	<path style="fill:#4C5B66;" d="M469.333,373.333H352v-10.667c0-5.891-4.776-10.667-10.667-10.667H170.667
		c-5.891,0-10.667,4.776-10.667,10.667v10.667H42.667V128H21.333v245.333c0.016,5.759,2.318,11.276,6.4,15.339
		c4.004,3.871,9.364,6.022,14.933,5.995H64v106.667C64,507.224,68.776,512,74.667,512h42.667c5.891,0,10.667-4.776,10.667-10.667
		v-42.667h256v42.667c0,5.891,4.776,10.667,10.667,10.667h42.667c5.891,0,10.667-4.776,10.667-10.667V394.667h21.333
		c11.782,0,21.333-9.551,21.333-21.333V128h-21.333V373.333z M106.667,490.667H85.333v-96h21.333V490.667z M181.333,373.333h149.333
		v21.333H181.333V373.333z M128,437.333v-42.667h32v10.667c0,5.891,4.776,10.667,10.667,10.667h170.667
		c5.891,0,10.667-4.776,10.667-10.667v-10.667h32v42.667H128z M426.667,490.667h-21.333v-96h21.333V490.667z"/>
	<path style="fill:#4C5B66;" d="M184.459,216.459L67.125,333.792l15.083,15.083L192,239.083l99.125,99.125l15.083-15.083
		l-24.459-24.459L352,228.416l77.792,77.792l15.083-15.083l-85.333-85.333c-4.165-4.164-10.917-4.164-15.083,0l-77.792,77.792
		l-67.125-67.125C195.376,212.295,188.624,212.295,184.459,216.459L184.459,216.459z"/>
	<path style="fill:#4C5B66;" d="M309.333,149.333C309.333,119.878,285.455,96,256,96c-29.455,0-53.333,23.878-53.333,53.333
		c0,29.455,23.878,53.333,53.333,53.333C285.441,202.631,309.298,178.774,309.333,149.333z M224,149.333c0-17.673,14.327-32,32-32
		s32,14.327,32,32s-14.327,32-32,32S224,167.006,224,149.333z"/>
</g>
<g>
</g>
<g>
</g>
<g>
</g>
<g>
</g>
<g>
</g>
<g>
</g>
<g>
</g>
<g>
</g>
<g>
</g>
<g>
</g>
<g>
</g>
<g>
</g>
<g>
</g>
<g>
</g>
<g>
</g>
</svg>
