<?xml version="1.0" encoding="iso-8859-1"?>
<!-- Generator: Adobe Illustrator 19.0.0, SVG Export Plug-In . SVG Version: 6.00 Build 0)  -->
<svg version="1.1" id="Capa_1" xmlns="http://www.w3.org/2000/svg" xmlns:xlink="http://www.w3.org/1999/xlink" x="0px" y="0px"
	 viewBox="0 0 512 512" style="enable-background:new 0 0 512 512;" xml:space="preserve">
<path style="fill:#FD6149;" d="M224,298.667h64v74.667h-64V298.667z"/>
<path style="fill:#F2F2F2;" d="M256,149.333l64,85.333l-32,32v32h-64v-32l-32-32L256,149.333z"/>
<path style="fill:#FFE451;" d="M288,298.667v-32l32-32l-64-85.333l-64,85.333l32,32v106.667h64V298.667z M437.333,256
	c0,100.148-81.186,181.333-181.333,181.333S74.667,356.148,74.667,256S155.852,74.667,256,74.667S437.333,155.852,437.333,256z"/>
<g>
	<path style="fill:#AAC4DA;" d="M64,224c5.891,0,10.667,4.776,10.667,10.667v42.667C74.667,283.224,69.891,288,64,288H21.333
		c-5.891,0-10.667-4.776-10.667-10.667v-42.667c0-5.891,4.776-10.667,10.667-10.667H64z"/>
	<path style="fill:#AAC4DA;" d="M288,448v42.667c0,5.891-4.776,10.667-10.667,10.667h-42.667c-5.891,0-10.667-4.776-10.667-10.667
		V448c0-5.891,4.776-10.667,10.667-10.667h42.667C283.224,437.333,288,442.109,288,448z"/>
	<path style="fill:#AAC4DA;" d="M448,288c-5.891,0-10.667-4.776-10.667-10.667v-42.667c0-5.891,4.776-10.667,10.667-10.667h42.667
		c5.891,0,10.667,4.776,10.667,10.667v42.667c0,5.891-4.776,10.667-10.667,10.667H448z"/>
	<path style="fill:#AAC4DA;" d="M224,64V21.333c0-5.891,4.776-10.667,10.667-10.667h42.667c5.891,0,10.667,4.776,10.667,10.667V64
		c0,5.891-4.776,10.667-10.667,10.667h-42.667C228.776,74.667,224,69.891,224,64z"/>
</g>
<g>
	<path style="fill:#D9EEF7;" d="M74.667,448v42.667c0,5.891-4.776,10.667-10.667,10.667H21.333c-5.891,0-10.667-4.776-10.667-10.667
		V448c0-5.891,4.776-10.667,10.667-10.667H64C69.891,437.333,74.667,442.109,74.667,448z"/>
	<path style="fill:#D9EEF7;" d="M501.333,448v42.667c0,5.891-4.776,10.667-10.667,10.667H448c-5.891,0-10.667-4.776-10.667-10.667
		V448c0-5.891,4.776-10.667,10.667-10.667h42.667C496.558,437.333,501.333,442.109,501.333,448z"/>
	<path style="fill:#D9EEF7;" d="M448,10.667h42.667c5.891,0,10.667,4.776,10.667,10.667V64c0,5.891-4.776,10.667-10.667,10.667H448
		c-5.891,0-10.667-4.776-10.667-10.667V21.333C437.333,15.442,442.109,10.667,448,10.667z"/>
	<path style="fill:#D9EEF7;" d="M74.667,42.667V64c0,5.891-4.776,10.667-10.667,10.667H21.333c-5.891,0-10.667-4.776-10.667-10.667
		V21.333c0-5.891,4.776-10.667,10.667-10.667H64c5.891,0,10.667,4.776,10.667,10.667V42.667z"/>
</g>
<g>
	<path style="fill:#4C5B66;" d="M21.333,85.333H32V192h21.333V85.333H64c11.782,0,21.333-9.551,21.333-21.333V53.333H192V32H85.333
		V21.333C85.333,9.551,75.782,0,64,0H21.333C9.551,0,0,9.551,0,21.333V64C0,75.782,9.551,85.333,21.333,85.333z M21.333,21.333H64
		V64H21.333V21.333z"/>
	<path style="fill:#4C5B66;" d="M490.667,213.333H480V106.667h-21.333v106.667H448c-1.613,0.015-3.22,0.212-4.789,0.587
		C426.816,141.633,370.367,85.184,298.08,68.789c0.375-1.569,0.572-3.176,0.587-4.789V53.333h106.667V32H298.667V21.333
		C298.667,9.551,289.115,0,277.333,0h-42.667c-11.782,0-21.333,9.551-21.333,21.333V64c0.015,1.613,0.212,3.22,0.587,4.789
		C141.633,85.184,85.184,141.633,68.789,213.92c-1.569-0.375-3.176-0.572-4.789-0.587H21.333C9.551,213.333,0,222.885,0,234.667
		v42.667c0,11.782,9.551,21.333,21.333,21.333H64c1.613-0.015,3.22-0.212,4.789-0.587c16.395,72.287,72.844,128.736,145.131,145.131
		c-0.375,1.569-0.572,3.176-0.587,4.789v10.667H106.667V480h106.667v10.667c0,11.782,9.551,21.333,21.333,21.333h42.667
		c11.782,0,21.333-9.551,21.333-21.333V448c-0.015-1.613-0.212-3.22-0.587-4.789c72.287-16.395,128.736-72.844,145.131-145.131
		c1.569,0.375,3.176,0.572,4.789,0.587h10.667v106.667H480V298.667h10.667c11.782,0,21.333-9.551,21.333-21.333v-42.667
		C512,222.885,502.449,213.333,490.667,213.333z M234.667,64V21.333h42.667V64H234.667z M64,277.333H21.333v-42.667H64V277.333z
		 M277.333,448v42.667h-42.667V448H277.333z M256,426.667c-94.257,0-170.667-76.41-170.667-170.667S161.743,85.333,256,85.333
		S426.667,161.743,426.667,256C426.555,350.21,350.21,426.555,256,426.667z M490.667,277.333H448v-42.667h42.667V277.333z"/>
	<path style="fill:#4C5B66;" d="M490.667,0H448c-11.782,0-21.333,9.551-21.333,21.333V64c0,11.782,9.551,21.333,21.333,21.333
		h42.667C502.449,85.333,512,75.782,512,64V21.333C512,9.551,502.449,0,490.667,0z M490.667,64H448V21.333h42.667V64z"/>
	<path style="fill:#4C5B66;" d="M64,426.667H53.333V320H32v106.667H21.333C9.551,426.667,0,436.218,0,448v42.667
		C0,502.449,9.551,512,21.333,512H64c11.782,0,21.333-9.551,21.333-21.333V448C85.333,436.218,75.782,426.667,64,426.667z
		 M64,490.667H21.333V448H64V490.667z"/>
	<path style="fill:#4C5B66;" d="M490.667,426.667H448c-11.782,0-21.333,9.551-21.333,21.333v10.667H320V480h106.667v10.667
		c0,11.782,9.551,21.333,21.333,21.333h42.667c11.782,0,21.333-9.551,21.333-21.333V448
		C512,436.218,502.449,426.667,490.667,426.667z M490.667,490.667H448V448h42.667V490.667z"/>
	<path style="fill:#4C5B66;" d="M264.533,142.933c-3.878-4.713-10.842-5.39-15.555-1.512c-0.552,0.454-1.058,0.96-1.512,1.512
		l-64,85.333c-3.184,4.247-2.761,10.188,0.992,13.941l28.875,28.875V288H192v21.333h21.333v64h21.333v-64h42.667v64h21.333v-64H320
		V288h-21.333v-16.917l28.875-28.875c3.753-3.753,4.176-9.695,0.992-13.941L264.533,142.933z M280.459,259.125
		c-2.001,2-3.125,4.713-3.125,7.541V288h-42.667v-21.333c-0.001-2.829-1.125-5.541-3.125-7.541l-25.461-25.461l39.253-52.331v53.333
		h21.333v-53.333l39.253,52.331L280.459,259.125z"/>
</g>
<g>
</g>
<g>
</g>
<g>
</g>
<g>
</g>
<g>
</g>
<g>
</g>
<g>
</g>
<g>
</g>
<g>
</g>
<g>
</g>
<g>
</g>
<g>
</g>
<g>
</g>
<g>
</g>
<g>
</g>
</svg>
