<?xml version="1.0" encoding="iso-8859-1"?>
<!-- Generator: Adobe Illustrator 19.0.0, SVG Export Plug-In . SVG Version: 6.00 Build 0)  -->
<svg version="1.1" id="Capa_1" xmlns="http://www.w3.org/2000/svg" xmlns:xlink="http://www.w3.org/1999/xlink" x="0px" y="0px"
	 viewBox="0 0 512.034 512.034" style="enable-background:new 0 0 512.034 512.034;" xml:space="preserve">
<path style="fill:#AAC4DA;" d="M224.019,469.367h64v32h-64V469.367z"/>
<path style="fill:#D9EEF7;" d="M320.019,426.701v42.667h-32h-64h-32v-42.667H320.019z"/>
<path style="fill:#FFE451;" d="M320.019,426.701h-128v-87.147C104.641,304.208,62.46,204.72,97.807,117.342
	S232.641-12.217,320.019,23.13s129.558,134.834,94.212,222.212c-17.342,42.872-51.341,76.87-94.212,94.212V426.701z"/>
<path style="fill:#31E8BB;" d="M416.019,160.034h74.667v42.667h-74.667V160.034z"/>
<path style="fill:#D9EEF7;" d="M416.019,160.034v42.667H53.352l-32-21.333l32-21.333H416.019z"/>
<g>
	<path style="fill:#4C5B66;" d="M181.352,394.701h21.333v-55.189c0-4.346-2.637-8.258-6.667-9.888
		c-43.229-17.459-76.692-52.906-91.637-97.067l-20.203,6.827c16.107,47.663,51.308,86.481,97.173,107.157V394.701z"/>
	<path style="fill:#4C5B66;" d="M256.019,21.367c57.119,0.116,109.88,30.556,138.571,79.947l18.453-10.667
		C362.942,3.933,252.03-25.748,165.316,24.353c-27.281,15.762-49.985,38.361-65.873,65.569l18.411,10.773
		C146.644,51.684,199.177,21.522,256.019,21.367z"/>
	<path style="fill:#4C5B66;" d="M316.019,329.634c-4.029,1.63-6.667,5.542-6.667,9.888v55.179h21.333v-48.16
		c45.851-20.682,81.045-59.488,97.163-107.136l-20.267-6.837C392.653,276.713,359.219,312.157,316.019,329.634L316.019,329.634z"/>
	<path style="fill:#4C5B66;" d="M160.019,437.367h21.333v32c0,5.891,4.776,10.667,10.667,10.667h21.333v21.333
		c0,5.891,4.776,10.667,10.667,10.667h64c5.891,0,10.667-4.776,10.667-10.667v-21.333h21.333c5.891,0,10.667-4.776,10.667-10.667
		v-32h21.333v-21.333h-192V437.367z M277.352,490.701h-42.667v-10.667h42.667V490.701z M309.352,458.701H202.685v-21.333h106.667
		V458.701z"/>
	<path style="fill:#4C5B66;" d="M490.685,149.367h-32v-21.333c0-5.891-4.776-10.667-10.667-10.667h-192v21.333h181.333v10.667h-384
		c-2.106,0.003-4.165,0.627-5.92,1.792l-32,21.333c-4.901,3.268-6.225,9.891-2.957,14.792c0.781,1.171,1.786,2.176,2.957,2.957
		l32,21.333c1.755,1.165,3.814,1.789,5.92,1.792h437.333c5.891,0,10.667-4.776,10.667-10.667v-42.667
		C501.352,154.143,496.576,149.367,490.685,149.367L490.685,149.367z M40.552,181.367l16-10.667h348.8v21.333h-348.8L40.552,181.367
		z M480.019,192.034h-53.333v-21.333h53.333V192.034z"/>
	<path style="fill:#4C5B66;" d="M213.352,256.034c5.891,0,10.667,4.776,10.667,10.667h21.333c0-17.673-14.327-32-32-32
		s-32,14.327-32,32s14.327,32,32,32h32v96h21.333v-96h32c17.673,0,32-14.327,32-32s-14.327-32-32-32c-17.673,0-32,14.327-32,32
		h21.333c0-5.891,4.776-10.667,10.667-10.667c5.891,0,10.667,4.776,10.667,10.667s-4.776,10.667-10.667,10.667h-85.333
		c-5.891,0-10.667-4.776-10.667-10.667S207.461,256.034,213.352,256.034z"/>
</g>
<g>
</g>
<g>
</g>
<g>
</g>
<g>
</g>
<g>
</g>
<g>
</g>
<g>
</g>
<g>
</g>
<g>
</g>
<g>
</g>
<g>
</g>
<g>
</g>
<g>
</g>
<g>
</g>
<g>
</g>
</svg>
